Full movie [37 min 7 sec] 720p wmv


 
http://bayimg.com/iaFHoAael
 
http://bayimg.com/iafhiaaEL
 
http://bayimg.com/IafhJaael
 
http://bayimg.com/IAFHkaaEl
 
http://bayimg.com/IafHLAaEL
 
http://bayimg.com/IaFhNaaEL



General

Format                                   : Windows Media
File size                                : 705 MiB
Duration                                 : 37mn 7s
Overall bit rate mode                    : Constant
Overall bit rate                         : 2 654 Kbps
Maximum Overall bit rate                 : 2 651 Kbps
Encoded date                             : UTC 2012-03-06 20:21:24.306

Video

ID                                       : 2
Format                                   : VC-1
Format profile                           : MP@HL
Codec ID                                 : WMV3
Codec ID/Info                            : Windows Media Video 9
Codec ID/Hint                            : WMV3
Description of the codec                 : Windows Media Video 9 - Professional
Duration                                 : 37mn 7s
Bit rate mode                            : Constant
Bit rate                                 : 2 500 Kbps
Width                                    : 1 280 pixels
Height                                   : 720 pixels
Display aspect ratio                     : 16:9
Frame rate                               : 29.970 fps
Bit depth                                : 8 bits
Scan type                                : Progressive
Compression mode                         : Lossy
Bits/(Pixel*Frame)                       : 0.091
Stream size                              : 664 MiB (94%)

Audio

ID                                       : 1
Format                                   : WMA
Format version                           : Version 2
Codec ID                                 : 161
Codec ID/Info                            : Windows Media Audio
Description of the codec                 : Windows Media Audio 9.2 - 128 kbps, 44 kHz, stereo 2-pass CBR
Duration                                 : 37mn 7s
Bit rate mode                            : Constant
Bit rate                                 : 128 Kbps
Channel(s)                               : 2 channels
Sampling rate                            : 44.1 KHz
Bit depth                                : 16 bits
Stream size                              : 34.0 MiB (5%)

